<?xml version="1.0" encoding="UTF-8" standalone="no"?>
<svg
   width="64"
   height="64"
   viewBox="0 0 64 64"
   fill="none"
   version="1.1"
   id="svg4"
   sodipodi:docname="mssql.svg"
   inkscape:version="1.1.2 (0a00cf5339, 2022-02-04)"
   xmlns:inkscape="http://www.inkscape.org/namespaces/inkscape"
   xmlns:sodipodi="http://sodipodi.sourceforge.net/DTD/sodipodi-0.dtd"
   xmlns="http://www.w3.org/2000/svg"
   xmlns:svg="http://www.w3.org/2000/svg">
  <defs
     id="defs8" />
  <sodipodi:namedview
     id="namedview6"
     pagecolor="#ffffff"
     bordercolor="#666666"
     borderopacity="1.0"
     inkscape:pageshadow="2"
     inkscape:pageopacity="0.0"
     inkscape:pagecheckerboard="0"
     showgrid="false"
     inkscape:zoom="5.6568543"
     inkscape:cx="39.774756"
     inkscape:cy="26.604893"
     inkscape:window-width="1920"
     inkscape:window-height="990"
     inkscape:window-x="0"
     inkscape:window-y="28"
     inkscape:window-maximized="1"
     inkscape:current-layer="svg4" />
  <g
     id="g904"
     transform="matrix(1.5134724,0,0,1.5134724,-5.0536608,-2.5528897)"
     style="stroke-width:0.37458835;stroke:#ffffff;stroke-opacity:1;stroke-miterlimit:4;stroke-dasharray:none">
    <path
       fill="#cfd8dc"
       d="M 23.084,11.277 C 21.451,8.828 21.098,5.555 21.021,4.21 16.873,5.107 12.752,6.716 12.99,7.901 13.02,8.05 13.208,8.229 13.52,8.403 L 13.032,9.276 C 12.436,8.942 12.101,8.557 12.01,8.097 11.741,6.756 13.26,5.543 16.652,4.388 18.968,3.599 21.304,3.128 21.403,3.109 L 22,2.989 V 3.6 c 0,0.042 0.026,4.288 1.916,7.123 z"
       id="path871"
       style="stroke-width:0.37458835;fill:#ffffff;stroke-miterlimit:4;stroke-dasharray:none;stroke:#ffffff;stroke-opacity:1" />
    <path
       fill="#cfd8dc"
       d="M 24.751,43 H 24.5 C 16.308,43 7.191,40.427 6.114,36.121 5.457,33.491 7.606,30.585 12.328,27.72 l 0.52,0.854 c -4.249,2.579 -6.296,5.172 -5.763,7.305 0.935,3.738 9.575,6.068 17.153,6.12 0.901,-1.347 5.742,-9.26 2.979,-19.873 l 0.967,-0.252 c 3.149,12.092 -3.218,20.837 -3.282,20.924 z"
       id="path873"
       style="stroke-width:0.37458835;fill:#ffffff;stroke-miterlimit:4;stroke-dasharray:none;stroke:#ffffff;stroke-opacity:1" />
    <path
       fill="#cfd8dc"
       d="m 9.931,39.306 c -0.539,0 -0.806,-0.059 -0.85,-0.07 C 8.905,39.193 8.767,39.058 8.719,38.884 8.67,38.71 8.72,38.523 8.848,38.396 8.92,38.324 16.045,31.188 17.007,25.418 l 0.986,0.164 c -0.827,4.964 -5.715,10.623 -7.656,12.707 1.939,-0.111 6.835,-1.019 16.234,-6.28 -7.335,-0.804 -8.495,-6.676 -8.507,-6.739 l 0.983,-0.181 c 0.047,0.246 1.226,6.011 9.244,6.011 0.003,0 0.005,0 0.008,0 v 0 c 0.227,0 0.424,0.152 0.482,0.37 0.06,0.218 -0.036,0.449 -0.231,0.563 -11.235,6.509 -16.683,7.272 -18.619,7.273 z"
       id="path875"
       style="stroke-width:0.37458835;fill:#ffffff;stroke-miterlimit:4;stroke-dasharray:none;stroke:#ffffff;stroke-opacity:1" />
    <path
       fill="#cfd8dc"
       d="m 14.524,41.7 c -0.207,0 -0.395,-0.128 -0.468,-0.325 -0.079,-0.211 -0.007,-0.45 0.177,-0.582 0.034,-0.025 1.813,-1.338 3.706,-4.228 -0.728,-0.322 -1.465,-0.698 -2.196,-1.137 -0.888,-0.533 -1.559,-1.105 -2.06,-1.691 -2.57,0.678 -4.942,0.946 -7.025,0.769 L 6.742,33.51 c 1.876,0.159 4.009,-0.063 6.321,-0.64 -1.573,-2.688 -0.129,-5.356 -0.109,-5.392 l 0.874,0.487 c -0.067,0.122 -1.265,2.37 0.249,4.633 2.201,-0.632 4.549,-1.567 6.979,-2.782 0.559,-1.835 0.996,-3.922 1.225,-6.276 0.016,-0.161 0.108,-0.304 0.248,-0.385 0.14,-0.081 0.311,-0.088 0.458,-0.021 0.032,0.015 3.264,1.491 5.604,2.454 0.17,0.07 0.288,0.228 0.307,0.411 0.02,0.183 -0.063,0.361 -0.216,0.465 -2.289,1.56 -4.563,2.913 -6.778,4.042 -0.702,2.225 -1.571,4.077 -2.459,5.591 3.702,1.383 6.915,1.404 6.956,1.404 0.228,0 0.427,0.154 0.484,0.375 0.057,0.221 -0.042,0.452 -0.241,0.563 -4.54,2.522 -11.767,3.232 -12.072,3.261 -0.016,-0.001 -0.032,0 -0.048,0 z m 4.385,-4.733 c -1.04,1.614 -2.062,2.773 -2.826,3.53 1.998,-0.294 5.501,-0.938 8.408,-2.139 -1.392,-0.171 -3.407,-0.551 -5.582,-1.391 z m -4.142,-3.536 c 0.393,0.392 0.883,0.775 1.49,1.14 0.736,0.442 1.483,0.817 2.22,1.135 0.754,-1.264 1.501,-2.781 2.142,-4.568 -2.021,0.962 -3.983,1.73 -5.852,2.293 z m 8.435,-9.102 c -0.205,1.768 -0.521,3.381 -0.913,4.85 1.66,-0.885 3.354,-1.896 5.062,-3.026 -1.549,-0.656 -3.252,-1.419 -4.149,-1.824 z"
       id="path877"
       style="stroke-width:0.37458835;fill:#ffffff;stroke-miterlimit:4;stroke-dasharray:none;stroke:#ffffff;stroke-opacity:1" />
    <path
       fill="#cfd8dc"
       d="m 17.924,10.6 c -0.117,0 -0.233,-0.042 -0.325,-0.12 C 15.989,9.102 14.094,6.298 14.014,6.179 13.885,5.988 13.905,5.733 14.06,5.563 c 0.154,-0.171 0.408,-0.211 0.608,-0.102 0.011,0.003 0.938,0.385 7.217,1.431 0.181,0.03 0.33,0.156 0.39,0.328 0.061,0.172 0.022,0.364 -0.1,0.5 -1.758,1.953 -3.979,2.813 -4.073,2.848 -0.058,0.021 -0.119,0.032 -0.178,0.032 z M 15.647,6.746 c 0.631,0.849 1.54,1.996 2.372,2.769 C 18.53,9.282 19.676,8.697 20.763,7.717 18.18,7.276 16.604,6.962 15.647,6.746 Z"
       id="path879"
       style="stroke-width:0.37458835;fill:#ffffff;stroke-miterlimit:4;stroke-dasharray:none;stroke:#ffffff;stroke-opacity:1" />
    <path
       fill="#b71c1c"
       d="m 21.843,24.4 c -0.068,0 -0.137,-0.014 -0.201,-0.042 -0.199,-0.088 -0.319,-0.294 -0.296,-0.51 0.292,-2.749 -3.926,-3.852 -3.969,-3.862 -0.174,-0.044 -0.312,-0.179 -0.359,-0.352 -0.047,-0.173 0.002,-0.359 0.129,-0.486 0.207,-0.207 5.139,-5.098 11.327,-7.784 0.173,-0.075 0.369,-0.047 0.515,0.07 0.145,0.118 0.212,0.307 0.174,0.489 -1.186,5.744 -6.71,12.044 -6.944,12.309 -0.099,0.109 -0.237,0.168 -0.376,0.168 z m -3.388,-5.115 c 1.184,0.445 3.258,1.475 3.783,3.356 1.449,-1.808 4.542,-5.973 5.697,-9.934 -4.387,2.11 -8.081,5.292 -9.48,6.578 z"
       id="path881"
       style="stroke-width:0.37458835;fill:#ffffff;stroke-miterlimit:4;stroke-dasharray:none;stroke:#ffffff;stroke-opacity:1" />
    <path
       fill="#b71c1c"
       d="m 13.079,28.36 -0.475,-0.88 c 1.883,-1.015 4.04,-2.883 5.807,-5.054 -1.504,1.03 -2.365,1.735 -2.392,1.758 l -0.639,-0.77 c 0.039,-0.032 1.764,-1.447 4.631,-3.22 0.787,-1.266 1.392,-2.568 1.703,-3.816 0.053,-0.212 0.099,-0.417 0.136,-0.615 -1.925,-0.687 -3.701,-1.094 -4.921,-1.269 -0.185,-0.026 -0.339,-0.153 -0.401,-0.328 -0.062,-0.175 -0.021,-0.371 0.104,-0.507 0.085,-0.092 2.116,-2.268 4.654,-3.463 0.197,-0.093 0.433,-0.047 0.581,0.114 0.067,0.073 1.44,1.615 1.091,4.805 1.155,0.45 2.345,0.997 3.491,1.648 2.759,-1.24 5.892,-2.356 9.229,-3.03 0.172,-0.034 0.363,0.028 0.481,0.168 0.117,0.14 0.149,0.333 0.083,0.503 -1.3,3.332 -4.786,6.891 -4.934,7.041 -0.101,0.102 -0.239,0.153 -0.383,0.148 -0.143,-0.008 -0.275,-0.076 -0.365,-0.188 -1.12,-1.408 -2.584,-2.574 -4.163,-3.523 -2.175,1.004 -4.101,2.078 -5.684,3.049 -2.02,3.153 -5.069,6.048 -7.634,7.429 z M 27.492,17.396 c 1.29,0.832 2.491,1.81 3.484,2.948 0.828,-0.898 2.815,-3.168 3.942,-5.422 -2.65,0.61 -5.158,1.493 -7.426,2.474 z m -4.693,-1.274 c -0.033,0.163 -0.071,0.33 -0.113,0.5 -0.21,0.839 -0.544,1.701 -0.972,2.561 1.096,-0.626 2.309,-1.272 3.618,-1.898 -0.838,-0.444 -1.693,-0.83 -2.533,-1.163 z m -4.751,-2.45 c 1.111,0.218 2.48,0.574 3.941,1.086 0.152,-1.843 -0.346,-2.972 -0.647,-3.472 -1.376,0.718 -2.581,1.728 -3.294,2.386 z"
       id="path883"
       style="stroke-width:0.37458835;fill:#ffffff;stroke-miterlimit:4;stroke-dasharray:none;stroke:#ffffff;stroke-opacity:1" />
    <path
       fill="#b71c1c"
       d="m 18.05,18.5 c 0,4.38 -3.65,7.86 -6.28,10.4 -0.44,0.43 -1.93,0.5 -1.93,0.5 0.37,-0.38 0.79,-0.78 1.24,-1.21 2.5,-2.42 5.97,-5.73 5.97,-9.69 0,-4.69 -1.89,-6.54 -3.38,-8.02 C 13.01,9.81 12.45,9.17 12.11,8.39 l 0.31,-0.13 c 0.34,0.15 0.73,0.32 1.03,0.45 0.24,0.35 0.56,0.69 0.93,1.06 1.53,1.53 3.67,3.63 3.67,8.73 z"
       id="path885"
       style="stroke-width:0.37458835;fill:#ffffff;stroke-miterlimit:4;stroke-dasharray:none;stroke:#ffffff;stroke-opacity:1" />
    <path
       id="path887"
       style="fill:#ffffff;stroke-width:0.37458835;stroke-miterlimit:4;stroke-dasharray:none;stroke:#ffffff;stroke-opacity:1"
       sodipodi:type="inkscape:offset"
       inkscape:radius="0"
       inkscape:original="M 12.140625 7.1191406 C 11.990625 7.4391406 11.939766 7.7696094 12.009766 8.0996094 C 12.339766 9.7496094 15.789609 10.329219 21.849609 11.199219 C 25.659609 11.749219 29.980313 12.370703 32.820312 13.470703 C 37.680312 15.330703 40.150156 17.829766 41.160156 19.009766 C 32.590156 20.059766 23.880547 22.509062 18.810547 24.539062 C 16.570547 25.439062 10.949219 27.899844 7.9492188 31.089844 C 9.9992187 29.999844 12.530312 28.760156 13.570312 28.160156 C 13.590312 28.150156 13.599375 28.150625 13.609375 28.140625 C 15.379375 27.120625 17.319453 26.210938 19.189453 25.460938 C 24.359453 23.390938 33.400156 20.870391 42.160156 19.900391 C 42.330156 19.880391 42.935547 19.794922 42.935547 19.794922 C 42.935547 19.794922 42.609531 19.280859 42.519531 19.130859 C 42.419531 18.970859 40.049687 15.179297 33.179688 12.529297 C 30.229688 11.399297 25.86 10.770938 22 10.210938 C 18.81 9.7509375 14.980547 9.1992188 13.560547 8.4492188 L 13.550781 8.4394531 C 13.510781 8.4194531 13.4 8.3597656 13.25 8.2597656 C 12.94 8.0397656 12.470625 7.6591406 12.140625 7.1191406 z "
       d="m 12.140625,7.1191406 c -0.15,0.32 -0.200859,0.6504688 -0.130859,0.9804688 0.33,1.65 3.779843,2.2296096 9.839843,3.0996096 3.81,0.55 8.130704,1.171484 10.970703,2.271484 4.86,1.86 7.329844,4.359063 8.339844,5.539063 -8.57,1.05 -17.279609,3.499296 -22.349609,5.529296 -2.24,0.9 -7.861328,3.360782 -10.8613282,6.550782 2.0499999,-1.09 4.5810932,-2.329688 5.6210932,-2.929688 0.02,-0.01 0.02906,-0.0095 0.03906,-0.01953 1.77,-1.02 3.710078,-1.929687 5.580078,-2.679687 5.17,-2.07 14.210703,-4.590547 22.970703,-5.560547 0.17,-0.02 0.775391,-0.105469 0.775391,-0.105469 0,0 -0.326016,-0.514063 -0.416016,-0.664063 -0.1,-0.16 -2.469844,-3.951562 -9.339843,-6.601562 C 30.229688,11.399297 25.86,10.770938 22,10.210938 18.81,9.7509375 14.980547,9.1992188 13.560547,8.4492188 l -0.0098,-0.00977 c -0.04,-0.02 -0.150781,-0.079688 -0.300781,-0.1796875 -0.31,-0.22 -0.779375,-0.600625 -1.109375,-1.140625 z" />
  </g>
</svg>
